<svg id="visual" viewBox="0 0 2000 300" width="2000" height="300" xmlns="http://www.w3.org/2000/svg" xmlns:xlink="http://www.w3.org/1999/xlink" version="1.1"><rect x="0" y="0" width="2000" height="300" fill="#94c973"></rect><path d="M0 182L22.2 189.5C44.3 197 88.7 212 133.2 223.5C177.7 235 222.3 243 266.8 236.3C311.3 229.7 355.7 208.3 400 195.2C444.3 182 488.7 177 533.2 178C577.7 179 622.3 186 666.8 192.2C711.3 198.3 755.7 203.7 800 210C844.3 216.3 888.7 223.7 933.2 230C977.7 236.3 1022.3 241.7 1066.8 242C1111.3 242.3 1155.7 237.7 1200 234.8C1244.3 232 1288.7 231 1333.2 234.2C1377.7 237.3 1422.3 244.7 1466.8 248C1511.3 251.3 1555.7 250.7 1600 249.3C1644.3 248 1688.7 246 1733.2 239.8C1777.7 233.7 1822.3 223.3 1866.8 212C1911.3 200.7 1955.7 188.3 1977.8 182.2L2000 176L2000 301L1977.8 301C1955.7 301 1911.3 301 1866.8 301C1822.3 301 1777.7 301 1733.2 301C1688.7 301 1644.3 301 1600 301C1555.7 301 1511.3 301 1466.8 301C1422.3 301 1377.7 301 1333.2 301C1288.7 301 1244.3 301 1200 301C1155.7 301 1111.3 301 1066.8 301C1022.3 301 977.7 301 933.2 301C888.7 301 844.3 301 800 301C755.7 301 711.3 301 666.8 301C622.3 301 577.7 301 533.2 301C488.7 301 444.3 301 400 301C355.7 301 311.3 301 266.8 301C222.3 301 177.7 301 133.2 301C88.7 301 44.3 301 22.2 301L0 301Z" fill="#76b947" stroke-linecap="round" stroke-linejoin="miter"></path></svg>